#!OML:ASF X:\für Bonn\!DataBase\2005_08_10_Bjorn_Final\c3d\bjorn.ASF
:FULLY-SPECIFIED
:DEGREES
212
root -21.446 17.9493 2.50312 -1442.14 44.3332 -10.7153
lowerback 0.280232 -3.12992 1.62854
upperback 9.85073 -4.07218 -0.929946
thorax 10.0934 -1.7437 -2.2233
lowerneck -2.87205 7.81618 3.04624
upperneck -2.78316 10.3394 -2.7913
head -0.0733907 5.16442 -1.24644
rclavicle -7.15625e-015 -2.70347e-014
rhumerus -55.2656 7.78492 -92.2481
rradius 70.9104
rwrist 6.34318
rhand -32.7898 33.5888
rfingers 7.12502
rthumb -6.01124 3.69411
lclavicle -7.15625e-015 -2.70347e-014
lhumerus -24.6034 -26.2645 93.5547
lradius 104.317
lwrist -5.81488
lhand -46.3103 -22.2641
lfingers 7.12502
lthumb -19.0441 6.82353
rfemur -41.15 -8.36112 11.0292
rtibia 76.6632
rfoot -8.41418 12.2804
rtoes -29.5297
lfemur 2.24343 -6.2795 -31.2285
ltibia 31.8034
lfoot -17.5649 -6.61274
ltoes 16.3476
213
root -21.2311 18.0456 2.69906 -1442.37 45.1753 -11.3869
lowerback 0.010864 -3.45562 1.84536
upperback 9.73199 -4.55418 -0.656788
thorax 10.1053 -1.97713 -2.10402
lowerneck -2.92474 7.97874 3.04943
upperneck -2.45393 10.5541 -2.9542
head 0.052698 5.27039 -1.28144
rclavicle 9.54166e-015 -2.70347e-014
rhumerus -55.7966 7.7348 -91.7555
rradius 70.968
rwrist 6.52043
rhand -33.2585 33.4648
rfingers 7.12502
rthumb -6.46377 3.5834
lclavicle 9.54166e-015 -2.70347e-014
lhumerus -24.0326 -26.8997 93.5305
lradius 104.08
lwrist -6.02947
lhand -46.4526 -22.4402
lfingers 7.12502
lthumb -19.1809 6.63399
rfemur -41.9552 -8.0527 12.0239
rtibia 73.8978
rfoot -8.0197 12.0977
rtoes -28.4394
lfemur 3.68587 -5.86814 -30.3653
ltibia 30.0815
lfoot -15.3781 -7.79572
ltoes 15.0616
214
root -21.0119 18.1395 2.89505 -1442.59 45.9747 -12.0534
lowerback -0.27765 -3.7686 2.06299
upperback 9.57863 -5.02244 -0.370268
thorax 10.0931 -2.20533 -1.97218
lowerneck -2.69463 8.13364 2.99777
upperneck -2.40654 10.7653 -3.15479
head 0.0449066 5.37717 -1.33971
rclavicle -2.94201e-014 1.59028e-014
rhumerus -56.2587 7.60928 -91.2459
rradius 70.9302
rwrist 6.76382
rhand -33.4958 33.1719
rfingers 7.12502
rthumb -6.69289 3.2977
lclavicle -2.94201e-014 1.59028e-014
lhumerus -23.5839 -27.5766 93.5239
lradius 103.857
lwrist -6.0169
lhand -46.5779 -22.7002
lfingers 7.12502
lthumb -19.3015 6.36196
rfemur -42.6143 -7.77796 12.9776
rtibia 70.9404
rfoot -7.72555 11.7485
rtoes -28.762
lfemur 5.07074 -5.23818 -29.4175
ltibia 28.3571
lfoot -12.9502 -9.15158
ltoes 13.2931
215
root -20.7895 18.2327 3.09262 -1442.8 46.7751 -12.6896
lowerback -0.573584 -4.04759 2.27161
upperback 9.41537 -5.44417 -0.0993215
thorax 10.0774 -2.41058 -1.85053
lowerneck -2.41725 8.25514 2.9566
upperneck -2.42033 10.9321 -3.32857
head 0.00832386 5.46247 -1.39661
rclavicle 8.74653e-015 2.8625e-014
rhumerus -56.6519 7.34867 -90.7298
rradius 70.8224
rwrist 6.88102
rhand -33.4066 32.7752
rfingers 7.12502
rthumb -6.60674 2.8983
lclavicle 8.74653e-015 2.8625e-014
lhumerus -23.2684 -28.4369 93.4941
lradius 103.707
lwrist -5.88191
lhand -46.7531 -22.7531
lfingers 7.12502
lthumb -19.47 6.29214
rfemur -43.0955 -7.63079 13.8748
rtibia 67.8253
rfoot -7.51336 11.3316
rtoes -30.2535
lfemur 6.42581 -4.50521 -28.4227
ltibia 26.6481
lfoot -10.2381 -10.5596
ltoes 11.1632
216
root -20.562 18.3224 3.28945 -1443 47.5694 -13.2929
lowerback -0.862317 -4.34095 2.44945
upperback 9.22335 -5.88526 0.187572
thorax 10.0308 -2.62972 -1.69714
lowerneck -2.29649 8.38934 2.9332
upperneck -2.14943 11.1143 -3.55853
head 0.0908717 5.55288 -1.45799
rclavicle 5.40694e-014 -4.77083e-015
rhumerus -56.9866 7.15218 -90.1835
rradius 70.6325
rwrist 6.87046
rhand -33.1717 32.6517
rfingers 7.12502
rthumb -6.37996 2.76782
lclavicle 5.40694e-014 -4.77083e-015
lhumerus -23.1543 -29.152 93.5572
lradius 103.433
lwrist -5.75221
lhand -46.9349 -22.7976
lfingers 7.12502
lthumb -19.6447 6.22983
rfemur -43.4088 -7.59957 14.677
rtibia 64.5865
rfoot -7.20336 11.1735
rtoes -31.4633
lfemur 7.73629 -3.78307 -27.4401
ltibia 24.9793
lfoot -7.29504 -11.9281
ltoes 9.11162
217
root -20.3306 18.4066 3.48785 -1443.16 48.3375 -13.7781
lowerback -1.10216 -4.60887 2.55166
upperback 9.01435 -6.28377 0.457157
thorax 9.94581 -2.83448 -1.51406
lowerneck -2.30028 8.51682 2.91328
upperneck -1.69373 11.2893 -3.76193
head 0.250294 5.63704 -1.50071
rclavicle 4.21423e-014 -1.43125e-014
rhumerus -57.3264 6.85624 -89.6249
rradius 70.4811
rwrist 6.81431
rhand -32.9084 32.5743
rfingers 7.12502
rthumb -6.12581 2.68286
lclavicle 4.21423e-014 -1.43125e-014
lhumerus -23.2125 -29.9055 93.6436
lradius 103.245
lwrist -5.52698
lhand -46.9793 -22.8042
lfingers 7.12502
lthumb -19.6874 6.2189
rfemur -43.5429 -7.58159 15.3056
rtibia 61.2892
rfoot -6.67013 11.3835
rtoes -32.0665
lfemur 9.01698 -3.04898 -26.5292
ltibia 23.3839
lfoot -4.10067 -13.1887
ltoes 8.5127
218
root -20.0958 18.4855 3.68552 -1443.35 49.0905 -14.2064
lowerback -1.31773 -4.86278 2.6275
upperback 8.83716 -6.65997 0.720563
thorax 9.88812 -3.02864 -1.32239
lowerneck -2.35938 8.64175 2.77777
upperneck -1.17225 11.466 -3.84835
head 0.425691 5.72101 -1.48447
rclavicle -7.99114e-014 3.33958e-014
rhumerus -57.6616 6.54433 -89.081
rradius 70.4444
rwrist 6.90531
rhand -32.8492 32.3754
rfingers 7.12502
rthumb -6.06858 2.4823
lclavicle -7.99114e-014 3.33958e-014
lhumerus -23.2985 -30.6249 93.753
lradius 103.278
lwrist -5.30286
lhand -46.7638 -22.7424
lfingers 7.12502
lthumb -19.4802 6.30177
rfemur -43.4727 -7.5121 15.7788
rtibia 57.9915
rfoot -5.96473 11.8616
rtoes -31.7135
lfemur 10.2485 -2.35133 -25.6724
ltibia 21.9627
lfoot -0.876577 -14.1554
ltoes 8.8058
219
root -19.861 18.5572 3.88429 -1443.41 49.8037 -14.4992
lowerback -1.58017 -5.08341 2.64473
upperback 8.6505 -6.98616 0.940674
thorax 9.85319 -3.20016 -1.14581
lowerneck -2.4331 8.75904 2.59358
upperneck -0.689668 11.6344 -3.84962
head 0.582755 5.80064 -1.43493
rclavicle 9.54166e-015 -3.02153e-014
rhumerus -57.9839 6.20161 -88.5771
rradius 70.458
rwrist 6.98275
rhand -32.8071 32.215
rfingers 7.12502
rthumb -6.02803 2.32079
lclavicle 9.54166e-015 -3.02153e-014
lhumerus -23.4746 -31.3019 93.8437
lradius 103.208
lwrist -5.23398
lhand -46.4254 -22.8176
lfingers 7.12502
lthumb -19.1548 6.25916
rfemur -43.3077 -7.23348 16.0305
rtibia 54.7391
rfoot -5.25041 12.3333
rtoes -30.9172
lfemur 11.278 -1.68981 -24.9232
ltibia 20.8284
lfoot 2.27228 -14.7922
ltoes 9.29501
220
root -19.6259 18.6201 4.08311 -1443.55 50.4877 -14.8718
lowerback -1.82472 -5.26932 2.75243
upperback 8.4735 -7.26936 1.14483
thorax 9.80878 -3.34245 -1.03113
lowerneck -2.5164 8.85805 2.40097
upperneck -0.319643 11.7772 -3.79236
head 0.700869 5.86815 -1.3694
rclavicle -1.74931e-014 3.65764e-014
rhumerus -58.2898 5.80962 -88.1243
rradius 70.491
rwrist 6.97264
rhand -32.8011 32.3709
rfingers 7.12502
rthumb -6.02215 2.47651
lclavicle -1.74931e-014 3.65764e-014
lhumerus -23.7266 -32.0182 93.9289
lradius 103.066
lwrist -5.20028
lhand -46.0346 -22.9745
lfingers 7.12502
lthumb -18.779 6.13904
rfemur -42.9818 -6.8517 16.2283
rtibia 51.5716
rfoot -4.62697 12.906
rtoes -30.1224
lfemur 12.1063 -1.25566 -24.216
ltibia 20.1018
lfoot 5.11735 -14.9158
ltoes 9.06662
221
root -19.3885 18.6751 4.281 -1444.15 51.1137 -15.6653
lowerback -1.93552 -5.43099 3.15366
upperback 8.33997 -7.53623 1.39044
thorax 9.70409 -3.45658 -1.01853
lowerneck -2.6563 8.94557 2.31151
upperneck 0.0807762 11.9035 -3.81653
head 0.849799 5.92564 -1.34195
rclavicle -1.59028e-015 1.43125e-014
rhumerus -58.7051 5.50848 -87.7066
rradius 70.7288
rwrist 6.89778
rhand -32.7951 32.6781
rfingers 7.12502
rthumb -6.01637 2.7835
lclavicle -1.59028e-015 1.43125e-014
lhumerus -24.0031 -32.8081 93.9885
lradius 102.884
lwrist -4.89822
lhand -45.603 -23.0492
lfingers 7.12502
lthumb -18.3638 6.104
rfemur -42.4583 -6.55028 16.7174
rtibia 48.591
rfoot -4.07935 13.7155
rtoes -29.8113
lfemur 12.7303 -1.06921 -23.3338
ltibia 20.0748
lfoot 7.38507 -14.6212
ltoes 8.25081
222
root -19.1496 18.7208 4.47705 -1445.04 51.7008 -16.672
lowerback -1.95558 -5.56681 3.72894
upperback 8.24566 -7.77542 1.65224
thorax 9.56963 -3.54497 -1.07162
lowerneck -2.77935 9.01302 2.23282
upperneck 0.493636 12.0059 -3.92439
head 1.00639 5.96987 -1.34285
rclavicle -3.89618e-014 2.38542e-014
rhumerus -59.1616 5.27462 -87.3071
rradius 71.0664
rwrist 6.59851
rhand -32.8711 33.3569
rfingers 7.12502
rthumb -6.08979 3.46442
lclavicle -3.89618e-014 2.38542e-014
lhumerus -24.286 -33.6331 94.0973
lradius 102.662
lwrist -4.52229
lhand -45.3275 -23.1307
lfingers 7.12502
lthumb -18.0988 6.04726
rfemur -41.7965 -6.41373 17.4132
rtibia 45.7945
rfoot -3.50944 14.5323
rtoes -29.9853
lfemur 13.245 -1.12834 -22.427
ltibia 20.5313
lfoot 9.18752 -13.9121
ltoes 7.39828
223
root -18.9172 18.7335 4.6729 -1445.81 52.2599 -17.5805
lowerback -2.04095 -5.64947 4.30217
upperback 8.13351 -7.94053 1.84512
thorax 9.445 -3.59462 -1.19406
lowerneck -2.89724 9.02428 2.38111
upperneck 1.00731 12.0334 -4.17319
head 1.21827 5.97403 -1.42288
rclavicle -4.41302e-014 1.11319e-014
rhumerus -59.5239 5.01066 -87.0491
rradius 71.3671
rwrist 6.17997
rhand -32.9142 33.751
rfingers 7.12502
rthumb -6.13139 3.85974
lclavicle -4.41302e-014 1.11319e-014
lhumerus -24.6085 -34.5896 94.1955
lradius 102.374
lwrist -4.15348
lhand -45.2442 -23.3909
lfingers 7.12502
lthumb -18.0186 5.79443
rfemur -41.3046 -6.41053 18.108
rtibia 43.3012
rfoot -2.72032 15.0972
rtoes -29.7586
lfemur 13.4426 -1.35383 -21.6837
ltibia 21.5243
lfoot 10.4962 -12.8956
ltoes 6.76654
224
root -18.6756 18.7619 4.86599 -1446.49 52.8462 -18.3599
lowerback -2.17106 -5.7403 4.7745
upperback 8.05209 -8.11388 2.03258
thorax 9.39228 -3.65325 -1.27503
lowerneck -3.05644 9.03094 2.52778
upperneck 1.56193 12.0615 -4.52477
head 1.4601 5.97532 -1.5325
rclavicle -1.94809e-014 -3.57812e-014
rhumerus -59.6894 4.88015 -86.8214
rradius 71.6923
rwrist 5.56822
rhand -32.9218 34.1322
rfingers 7.12502
rthumb -6.13872 4.24119
lclavicle -1.94809e-014 -3.57812e-014
lhumerus -24.9083 -35.4362 94.358
lradius 102.036
lwrist -3.93475
lhand -45.0902 -23.5036
lfingers 7.12502
lthumb -17.8705 5.6953
rfemur -40.6871 -6.4476 18.6705
rtibia 41.0165
rfoot -1.70914 15.5306
rtoes -28.4271
lfemur 13.426 -1.66135 -21.1003
ltibia 22.9502
lfoot 11.3452 -11.709
ltoes 5.87897
